<svg width="24" height="24" viewBox="0 0 24 24" fill="none" xmlns="http://www.w3.org/2000/svg">
<path d="M18.5139 2.37198L21.9619 5.81898C22.2317 6.08884 22.4186 6.43022 22.5006 6.80285C22.5827 7.17547 22.5564 7.56379 22.4249 7.92198L20.6619 12.734C20.6119 12.8704 20.5327 12.9943 20.4299 13.097L12.1069 21.42C11.9212 21.6058 11.7007 21.7532 11.458 21.8537C11.2153 21.9543 10.9552 22.0061 10.6924 22.0061C10.4297 22.0061 10.1696 21.9543 9.92689 21.8537C9.68418 21.7532 9.46367 21.6058 9.27794 21.42L2.91394 15.056C2.539 14.6809 2.32837 14.1723 2.32837 13.642C2.32837 13.1116 2.539 12.603 2.91394 12.228L11.2469 3.89498C11.3499 3.79207 11.4742 3.71289 11.6109 3.66298L16.4129 1.90798C16.771 1.77705 17.1589 1.75117 17.5312 1.83338C17.9034 1.91558 18.2444 2.10245 18.5139 2.37198ZM12.5049 5.46598L4.32794 13.642L10.6919 20.006L18.8599 11.839L20.5469 7.23398L17.0999 3.78598L12.5049 5.46598ZM15.2889 9.04598C15.1433 8.90824 15.0267 8.74269 14.946 8.55912C14.8654 8.37555 14.8224 8.17768 14.8196 7.9772C14.8168 7.77673 14.8541 7.57772 14.9295 7.39194C15.0049 7.20616 15.1168 7.03739 15.2585 6.89558C15.4003 6.75378 15.569 6.64183 15.7547 6.56635C15.9405 6.49087 16.1395 6.45339 16.3399 6.45613C16.5404 6.45887 16.7383 6.50178 16.9219 6.5823C17.1055 6.66283 17.2711 6.77935 17.4089 6.92498C17.6739 7.20933 17.8181 7.58542 17.8113 7.97402C17.8044 8.36263 17.647 8.7334 17.3722 9.00822C17.0974 9.28305 16.7266 9.44047 16.338 9.44733C15.9494 9.45419 15.5733 9.30994 15.2889 9.04498V9.04598Z" fill="#21272A"/>
<path d="M12.1152 10.4639L10.9551 14H10.0205L11.6055 9.73438H12.2002L12.1152 10.4639ZM13.0791 14L11.916 10.4639L11.8223 9.73438H12.4229L14.0166 14H13.0791ZM13.0264 12.4121V13.1006H10.7734V12.4121H13.0264Z" fill="black"/>
</svg>
