<svg width="25" height="24" viewBox="0 0 25 24" fill="none" xmlns="http://www.w3.org/2000/svg">
<path d="M12.5 16.358C11.4391 16.358 10.4217 15.9366 9.67157 15.1865C8.92143 14.4363 8.5 13.4189 8.5 12.358C8.5 11.2972 8.92143 10.2798 9.67157 9.5296C10.4217 8.77946 11.4391 8.35803 12.5 8.35803C13.5609 8.35803 14.5783 8.77946 15.3284 9.5296C16.0786 10.2798 16.5 11.2972 16.5 12.358C16.5 13.4189 16.0786 14.4363 15.3284 15.1865C14.5783 15.9366 13.5609 16.358 12.5 16.358ZM18.5 11.358H21.5C21.7652 11.358 22.0196 11.4634 22.2071 11.6509C22.3946 11.8385 22.5 12.0928 22.5 12.358C22.5 12.6232 22.3946 12.8776 22.2071 13.0651C22.0196 13.2527 21.7652 13.358 21.5 13.358H18.5C18.2348 13.358 17.9804 13.2527 17.7929 13.0651C17.6054 12.8776 17.5 12.6232 17.5 12.358C17.5 12.0928 17.6054 11.8385 17.7929 11.6509C17.9804 11.4634 18.2348 11.358 18.5 11.358ZM12.5 17.358C12.7652 17.358 13.0196 17.4634 13.2071 17.6509C13.3946 17.8385 13.5 18.0928 13.5 18.358V21.358C13.5 21.6232 13.3946 21.8776 13.2071 22.0651C13.0196 22.2527 12.7652 22.358 12.5 22.358C12.2348 22.358 11.9804 22.2527 11.7929 22.0651C11.6054 21.8776 11.5 21.6232 11.5 21.358V18.358C11.5 18.0928 11.6054 17.8385 11.7929 17.6509C11.9804 17.4634 12.2348 17.358 12.5 17.358ZM12.5 2.35803C12.7652 2.35803 13.0196 2.46339 13.2071 2.65093C13.3946 2.83846 13.5 3.09282 13.5 3.35803V6.35803C13.5 6.62325 13.3946 6.8776 13.2071 7.06514C13.0196 7.25268 12.7652 7.35803 12.5 7.35803C12.2348 7.35803 11.9804 7.25268 11.7929 7.06514C11.6054 6.8776 11.5 6.62325 11.5 6.35803V3.35803C11.5 3.09282 11.6054 2.83846 11.7929 2.65093C11.9804 2.46339 12.2348 2.35803 12.5 2.35803ZM3.5 11.358H6.5C6.76522 11.358 7.01957 11.4634 7.20711 11.6509C7.39464 11.8385 7.5 12.0928 7.5 12.358C7.5 12.6232 7.39464 12.8776 7.20711 13.0651C7.01957 13.2527 6.76522 13.358 6.5 13.358H3.5C3.23478 13.358 2.98043 13.2527 2.79289 13.0651C2.60536 12.8776 2.5 12.6232 2.5 12.358C2.5 12.0928 2.60536 11.8385 2.79289 11.6509C2.98043 11.4634 3.23478 11.358 3.5 11.358ZM17.45 15.893L19.571 18.015C19.7532 18.2036 19.854 18.4562 19.8517 18.7184C19.8494 18.9806 19.7442 19.2314 19.5588 19.4169C19.3734 19.6023 19.1226 19.7074 18.8604 19.7097C18.5982 19.712 18.3456 19.6112 18.157 19.429L16.036 17.308C15.8484 17.1205 15.7429 16.8662 15.7428 16.6009C15.7427 16.3356 15.848 16.0812 16.0355 15.8935C16.223 15.7059 16.4774 15.6004 16.7426 15.6003C17.0079 15.6002 17.2624 15.7055 17.45 15.893ZM8.964 15.893C9.05698 15.9859 9.13074 16.0962 9.18106 16.2176C9.23138 16.339 9.25729 16.4691 9.25729 16.6005C9.25729 16.7319 9.23138 16.8621 9.18106 16.9835C9.13074 17.1049 9.05698 17.2152 8.964 17.308L6.844 19.428C6.75182 19.5236 6.64153 19.5999 6.51956 19.6524C6.3976 19.7049 6.2664 19.7325 6.13362 19.7338C6.00084 19.735 5.86915 19.7098 5.74622 19.6596C5.62329 19.6094 5.51158 19.5353 5.41762 19.4414C5.32367 19.3476 5.24933 19.236 5.19897 19.1131C5.1486 18.9903 5.1232 18.8586 5.12426 18.7258C5.12532 18.5931 5.15281 18.4618 5.20513 18.3398C5.25746 18.2177 5.33356 18.1073 5.429 18.015L7.55 15.893C7.73753 15.7056 7.99184 15.6002 8.257 15.6002C8.52216 15.6002 8.77647 15.7056 8.964 15.893ZM19.571 5.28703C19.7585 5.47456 19.8638 5.72887 19.8638 5.99403C19.8638 6.2592 19.7585 6.5135 19.571 6.70103L17.45 8.82203C17.2614 9.00419 17.0088 9.10498 16.7466 9.10271C16.4844 9.10043 16.2336 8.99526 16.0482 8.80985C15.8628 8.62444 15.7576 8.37363 15.7553 8.11143C15.753 7.84924 15.8538 7.59663 16.036 7.40803L18.156 5.28703C18.2489 5.19406 18.3592 5.1203 18.4806 5.06997C18.602 5.01965 18.7321 4.99375 18.8635 4.99375C18.9949 4.99375 19.125 5.01965 19.2464 5.06997C19.3678 5.1203 19.4781 5.19406 19.571 5.28703ZM6.843 5.28703L8.964 7.40803C9.05951 7.50028 9.13569 7.61062 9.1881 7.73263C9.24051 7.85463 9.2681 7.98585 9.26925 8.11863C9.2704 8.25141 9.2451 8.38309 9.19482 8.50599C9.14454 8.62888 9.07029 8.74053 8.9764 8.83443C8.8825 8.92832 8.77085 9.00257 8.64795 9.05285C8.52506 9.10314 8.39338 9.12844 8.2606 9.12728C8.12782 9.12613 7.9966 9.09854 7.8746 9.04613C7.75259 8.99372 7.64225 8.91754 7.55 8.82203L5.43 6.70103C5.24784 6.51243 5.14705 6.25983 5.14933 5.99763C5.1516 5.73543 5.25677 5.48462 5.44218 5.29921C5.62759 5.11381 5.8784 5.00864 6.1406 5.00636C6.4028 5.00408 6.6554 5.10487 6.844 5.28703H6.843Z" fill="#21272A"/>
</svg>
