<svg width="24" height="24" viewBox="0 0 24 24" fill="none" xmlns="http://www.w3.org/2000/svg">
<path d="M18.5139 2.37204L21.9619 5.81904C22.2317 6.0889 22.4186 6.43028 22.5006 6.80291C22.5827 7.17553 22.5564 7.56385 22.4249 7.92204L20.6619 12.734C20.6119 12.8705 20.5327 12.9943 20.4299 13.097L12.1069 21.42C11.9212 21.6058 11.7007 21.7532 11.458 21.8538C11.2153 21.9544 10.9552 22.0061 10.6924 22.0061C10.4297 22.0061 10.1696 21.9544 9.92689 21.8538C9.68418 21.7532 9.46367 21.6058 9.27794 21.42L2.91394 15.056C2.539 14.681 2.32837 14.1724 2.32837 13.642C2.32837 13.1117 2.539 12.6031 2.91394 12.228L11.2469 3.89504C11.3499 3.79213 11.4742 3.71295 11.6109 3.66304L16.4129 1.90804C16.771 1.77711 17.1589 1.75123 17.5312 1.83344C17.9034 1.91564 18.2444 2.10251 18.5139 2.37204ZM12.5049 5.46604L4.32794 13.642L10.6919 20.006L18.8599 11.839L20.5469 7.23404L17.0999 3.78604L12.5049 5.46604ZM15.2889 9.04604C15.1433 8.9083 15.0267 8.74275 14.946 8.55918C14.8654 8.37561 14.8224 8.17774 14.8196 7.97726C14.8168 7.77679 14.8541 7.57778 14.9295 7.392C15.0049 7.20623 15.1168 7.03745 15.2585 6.89564C15.4003 6.75384 15.569 6.64189 15.7547 6.56641C15.9405 6.49093 16.1395 6.45345 16.3399 6.45619C16.5404 6.45893 16.7383 6.50184 16.9219 6.58237C17.1055 6.66289 17.2711 6.77941 17.4089 6.92504C17.6739 7.20939 17.8181 7.58548 17.8113 7.97408C17.8044 8.36269 17.647 8.73346 17.3722 9.00828C17.0974 9.28311 16.7266 9.44053 16.338 9.44739C15.9494 9.45425 15.5733 9.31 15.2889 9.04504V9.04604Z" fill="#21272A"/>
<path d="M9.78223 9.73438H10.5264L11.6221 12.8662L12.7178 9.73438H13.4619L11.9209 14H11.3232L9.78223 9.73438ZM9.38086 9.73438H10.1221L10.2568 12.7871V14H9.38086V9.73438ZM13.1221 9.73438H13.8662V14H12.9873V12.7871L13.1221 9.73438Z" fill="black"/>
</svg>
