<svg width="24" height="24" viewBox="0 0 24 24" fill="none" xmlns="http://www.w3.org/2000/svg">
<path d="M18.5139 2.37198L21.9619 5.81898C22.2317 6.08884 22.4186 6.43022 22.5006 6.80285C22.5827 7.17547 22.5564 7.56379 22.4249 7.92198L20.6619 12.734C20.6119 12.8704 20.5327 12.9943 20.4299 13.097L12.1069 21.42C11.9212 21.6058 11.7007 21.7532 11.458 21.8537C11.2153 21.9543 10.9552 22.0061 10.6924 22.0061C10.4297 22.0061 10.1696 21.9543 9.92689 21.8537C9.68418 21.7532 9.46367 21.6058 9.27794 21.42L2.91394 15.056C2.539 14.6809 2.32837 14.1723 2.32837 13.642C2.32837 13.1116 2.539 12.603 2.91394 12.228L11.2469 3.89498C11.3499 3.79207 11.4742 3.71289 11.6109 3.66298L16.4129 1.90798C16.771 1.77705 17.1589 1.75117 17.5312 1.83338C17.9034 1.91558 18.2444 2.10245 18.5139 2.37198ZM12.5049 5.46598L4.32794 13.642L10.6919 20.006L18.8599 11.839L20.5469 7.23398L17.0999 3.78598L12.5049 5.46598ZM15.2889 9.04598C15.1433 8.90824 15.0267 8.74269 14.946 8.55912C14.8654 8.37555 14.8224 8.17768 14.8196 7.9772C14.8168 7.77673 14.8541 7.57772 14.9295 7.39194C15.0049 7.20616 15.1168 7.03739 15.2585 6.89558C15.4003 6.75378 15.569 6.64183 15.7547 6.56635C15.9405 6.49087 16.1395 6.45339 16.3399 6.45613C16.5404 6.45887 16.7383 6.50178 16.9219 6.5823C17.1055 6.66283 17.2711 6.77935 17.4089 6.92498C17.6739 7.20933 17.8181 7.58542 17.8113 7.97402C17.8044 8.36263 17.647 8.7334 17.3722 9.00822C17.0974 9.28305 16.7266 9.44047 16.338 9.44733C15.9494 9.45419 15.5733 9.30994 15.2889 9.04498V9.04598Z" fill="#21272A"/>
<path d="M12.6016 12.8838C12.6016 12.8076 12.5898 12.7393 12.5664 12.6787C12.5449 12.6162 12.5039 12.5596 12.4434 12.5088C12.3828 12.4561 12.2979 12.4043 12.1885 12.3535C12.0791 12.3027 11.9375 12.25 11.7637 12.1953C11.5703 12.1328 11.3867 12.0625 11.2129 11.9844C11.041 11.9062 10.8887 11.8154 10.7559 11.7119C10.625 11.6064 10.5215 11.4844 10.4453 11.3457C10.3711 11.207 10.334 11.0459 10.334 10.8623C10.334 10.6846 10.373 10.5234 10.4512 10.3789C10.5293 10.2324 10.6387 10.1074 10.7793 10.0039C10.9199 9.89844 11.0859 9.81738 11.2773 9.76074C11.4707 9.7041 11.6826 9.67578 11.9131 9.67578C12.2275 9.67578 12.502 9.73242 12.7363 9.8457C12.9707 9.95898 13.1523 10.1143 13.2812 10.3115C13.4121 10.5088 13.4775 10.7344 13.4775 10.9883H12.6045C12.6045 10.8633 12.5781 10.7539 12.5254 10.6602C12.4746 10.5645 12.3965 10.4893 12.291 10.4346C12.1875 10.3799 12.0566 10.3525 11.8984 10.3525C11.7461 10.3525 11.6191 10.376 11.5176 10.4229C11.416 10.4678 11.3398 10.5293 11.2891 10.6074C11.2383 10.6836 11.2129 10.7695 11.2129 10.8652C11.2129 10.9375 11.2305 11.0029 11.2656 11.0615C11.3027 11.1201 11.3574 11.1748 11.4297 11.2256C11.502 11.2764 11.5908 11.3242 11.6963 11.3691C11.8018 11.4141 11.9238 11.458 12.0625 11.501C12.2949 11.5713 12.499 11.6504 12.6748 11.7383C12.8525 11.8262 13.001 11.9248 13.1201 12.0342C13.2393 12.1436 13.3291 12.2676 13.3896 12.4062C13.4502 12.5449 13.4805 12.7021 13.4805 12.8779C13.4805 13.0635 13.4443 13.2295 13.3721 13.376C13.2998 13.5225 13.1953 13.6465 13.0586 13.748C12.9219 13.8496 12.7588 13.9268 12.5693 13.9795C12.3799 14.0322 12.168 14.0586 11.9336 14.0586C11.7227 14.0586 11.5146 14.0312 11.3096 13.9766C11.1045 13.9199 10.918 13.835 10.75 13.7217C10.584 13.6084 10.4512 13.4639 10.3516 13.2881C10.252 13.1123 10.2021 12.9043 10.2021 12.6641H11.084C11.084 12.7969 11.1045 12.9092 11.1455 13.001C11.1865 13.0928 11.2441 13.167 11.3184 13.2236C11.3945 13.2803 11.4844 13.3213 11.5879 13.3467C11.6934 13.3721 11.8086 13.3848 11.9336 13.3848C12.0859 13.3848 12.2109 13.3633 12.3086 13.3203C12.4082 13.2773 12.4814 13.2178 12.5283 13.1416C12.5771 13.0654 12.6016 12.9795 12.6016 12.8838Z" fill="black"/>
</svg>
