<svg width="25" height="24" viewBox="0 0 25 24" fill="none" xmlns="http://www.w3.org/2000/svg">
<path d="M22.5 10.163C22.174 10.3463 21.9027 10.613 21.7139 10.9359C21.5252 11.2587 21.4258 11.626 21.426 12C21.426 12.789 21.859 13.476 22.5 13.837L21.783 16.243C21.3954 16.1763 20.997 16.2196 20.6327 16.3678C20.2685 16.516 19.953 16.7633 19.7222 17.0816C19.4913 17.3999 19.3542 17.7766 19.3264 18.1688C19.2986 18.5611 19.3813 18.9533 19.565 19.301L17.503 20.903C17.23 20.6792 16.9051 20.5277 16.5582 20.4624C16.2113 20.3971 15.8535 20.4202 15.5179 20.5295C15.1822 20.6387 14.8794 20.8307 14.6374 21.0877C14.3954 21.3447 14.2219 21.6584 14.133 22L10.843 21.992C10.7531 21.652 10.5794 21.34 10.3378 21.0845C10.0962 20.829 9.79439 20.6381 9.45999 20.5292C9.12558 20.4204 8.76924 20.3972 8.42353 20.4616C8.07782 20.526 7.75377 20.676 7.481 20.898L5.421 19.283C5.59957 18.9367 5.67855 18.5477 5.64914 18.1592C5.61973 17.7708 5.48309 17.3981 5.25442 17.0826C5.02576 16.7672 4.71404 16.5214 4.35398 16.3727C3.99391 16.2239 3.59962 16.178 3.215 16.24L2.5 13.825C2.81995 13.6398 3.08551 13.3737 3.27 13.0533C3.45449 12.733 3.5514 12.3697 3.551 12C3.551 11.22 3.13 10.54 2.5 10.175L3.215 7.76C3.5997 7.82225 3.99412 7.77648 4.35435 7.6278C4.71457 7.47912 5.02645 7.23336 5.25525 6.9179C5.48405 6.60243 5.62078 6.22964 5.65022 5.84106C5.67966 5.45247 5.60066 5.06334 5.422 4.717L7.48 3.102C7.75277 3.32395 8.07682 3.47399 8.42253 3.53841C8.76824 3.60283 9.12458 3.57957 9.45899 3.47075C9.79339 3.36194 10.0952 3.17104 10.3368 2.91551C10.5784 2.65998 10.7521 2.34797 10.842 2.008L14.134 2C14.2229 2.34161 14.3964 2.65535 14.6384 2.91233C14.8804 3.16931 15.1832 3.36127 15.5189 3.47053C15.8545 3.5798 16.2123 3.60285 16.5592 3.53758C16.9061 3.4723 17.231 3.32079 17.504 3.097L19.564 4.7C19.3803 5.04769 19.2976 5.43989 19.3254 5.83215C19.3532 6.22442 19.4903 6.60106 19.7212 6.91938C19.952 7.23771 20.2675 7.485 20.6317 7.63322C20.996 7.78144 21.3944 7.82467 21.782 7.758L22.5 10.162V10.163ZM17.323 5.68C17.323 5.617 17.325 5.555 17.328 5.492L17.248 5.43C16.4691 5.64219 15.6449 5.61989 14.8786 5.36588C14.1123 5.11187 13.4379 4.63744 12.94 4.002L12.036 4.004C11.5399 4.63674 10.8687 5.10966 10.106 5.36392C9.3432 5.61817 8.52251 5.64255 7.746 5.434L7.651 5.51C7.68866 6.41268 7.42769 7.30259 6.9085 8.04197C6.3893 8.78135 5.64085 9.32895 4.779 9.6C5.28181 10.2988 5.55191 11.1381 5.551 11.999C5.551 12.881 5.271 13.714 4.779 14.399C5.64085 14.67 6.3893 15.2176 6.9085 15.957C7.42769 16.6964 7.68866 17.5863 7.651 18.489L7.747 18.564C8.52339 18.3562 9.34371 18.3809 10.1062 18.6351C10.8686 18.8894 11.5397 19.3619 12.036 19.994L12.94 19.996C13.4376 19.3604 14.1118 18.8859 14.8779 18.6319C15.6441 18.3778 16.4682 18.3556 17.247 18.568L17.327 18.506C17.2858 17.6005 17.5452 16.7068 18.0649 15.9642C18.5845 15.2215 19.3352 14.6716 20.2 14.4C19.6968 13.701 19.4263 12.8613 19.427 12C19.427 11.118 19.708 10.284 20.2 9.6C19.366 9.33781 18.6374 8.81638 18.1201 8.11155C17.6029 7.40672 17.324 6.55526 17.324 5.681L17.323 5.68ZM12.5 16C11.4391 16 10.4217 15.5786 9.67157 14.8284C8.92143 14.0783 8.5 13.0609 8.5 12C8.5 10.9391 8.92143 9.92172 9.67157 9.17157C10.4217 8.42143 11.4391 8 12.5 8C13.5609 8 14.5783 8.42143 15.3284 9.17157C16.0786 9.92172 16.5 10.9391 16.5 12C16.5 13.0609 16.0786 14.0783 15.3284 14.8284C14.5783 15.5786 13.5609 16 12.5 16ZM12.5 14C13.0304 14 13.5391 13.7893 13.9142 13.4142C14.2893 13.0391 14.5 12.5304 14.5 12C14.5 11.4696 14.2893 10.9609 13.9142 10.5858C13.5391 10.2107 13.0304 10 12.5 10C11.9696 10 11.4609 10.2107 11.0858 10.5858C10.7107 10.9609 10.5 11.4696 10.5 12C10.5 12.5304 10.7107 13.0391 11.0858 13.4142C11.4609 13.7893 11.9696 14 12.5 14Z" fill="#21272A"/>
</svg>
